<svg width="138" height="138" viewBox="0 0 138 138" fill="none" xmlns="http://www.w3.org/2000/svg">
<path d="M20.3981 138C16.6986 138 13.5316 136.649 10.8971 133.946C8.26257 131.244 6.94531 127.995 6.94531 124.2V41.4C6.94531 37.605 8.26257 34.3563 10.8971 31.6537C13.5316 28.9513 16.6986 27.6 20.3981 27.6H33.851C33.851 20.01 36.4855 13.5125 41.7545 8.1075C47.0235 2.7025 53.3576 0 60.7566 0C68.1557 0 74.4897 2.7025 79.7588 8.1075C85.0278 13.5125 87.6623 20.01 87.6623 27.6H101.115C104.815 27.6 107.982 28.9513 110.616 31.6537C113.251 34.3563 114.568 37.605 114.568 41.4V124.2C114.568 127.995 113.251 131.244 110.616 133.946C107.982 136.649 104.815 138 101.115 138H20.3981ZM20.3981 124.2H101.115V41.4H87.6623V55.2C87.6623 57.155 87.0177 58.7938 85.7284 60.1162C84.4392 61.4388 82.8417 62.1 80.9359 62.1C79.0301 62.1 77.4325 61.4388 76.1433 60.1162C74.8541 58.7938 74.2095 57.155 74.2095 55.2V41.4H47.3038V55.2C47.3038 57.155 46.6592 58.7938 45.37 60.1162C44.0807 61.4388 42.4832 62.1 40.5774 62.1C38.6716 62.1 37.074 61.4388 35.7848 60.1162C34.4956 58.7938 33.851 57.155 33.851 55.2V41.4H20.3981V124.2ZM47.3038 27.6H74.2095C74.2095 23.805 72.8922 20.5562 70.2577 17.8538C67.6232 15.1512 64.4562 13.8 60.7566 13.8C57.0571 13.8 53.8901 15.1512 51.2556 17.8538C48.6211 20.5562 47.3038 23.805 47.3038 27.6Z" fill="#0F721E"/>
</svg>
