<svg width="145" height="138" viewBox="0 0 145 138" fill="none" xmlns="http://www.w3.org/2000/svg">
<path d="M8.65332 30.5928C10.557 55.263 22.719 68.1378 35.4922 74.9365L47.6748 81.4209L42.4727 68.6377C38.5906 59.0986 35.302 46.4438 33.4951 29.6729L33.0137 25.209H8.2373L8.65332 30.5928ZM111.473 29.6748C109.749 45.7318 106.654 58.0314 102.982 67.4053L97.8994 80.3828L110.073 73.5967C122.888 66.453 134.372 53.6491 136.284 30.6221L136.734 25.209H111.952L111.473 29.6748ZM68.4082 97.8408L65.4844 96.5059C61.6689 94.7639 56.6586 91.4166 51.6455 84.9697L50.582 83.6016L48.9004 83.1855L47.9756 82.9502C43.3322 81.7377 38.3949 79.9656 33.6104 77.4053L33.6035 77.4014L33.5967 77.3984L32.9434 77.0459C19.4461 69.6561 7.23792 56.0866 5.11328 31.4795L5.01855 30.2803C4.72345 26.1053 8.37147 22.2471 13.4111 22.2471H32.8145L32.4922 16.9434C32.4107 15.6029 32.3557 14.2513 32.2988 12.7939V12.79L32.2939 12.4199C32.3573 8.78852 35.4612 5.35107 39.9834 5.02734H104.314C109.364 5.02734 112.855 8.88845 112.698 12.8164V12.8174C112.641 14.2549 112.586 15.63 112.505 16.9697L112.183 22.2734H131.586C136.636 22.2736 140.287 26.1361 139.979 30.3135C138.003 56.2377 124.23 70.1718 109.239 77.542L109.236 77.5439C105.07 79.5953 100.793 81.1355 96.6934 82.2793L95.0469 82.7383L94.0264 84.1094C88.8027 91.1253 83.5055 94.6693 79.499 96.5127L76.5889 97.8516V125.753H99.7695C102.288 125.753 103.859 127.614 103.859 129.377C103.859 131.14 102.288 133 99.7695 133H45.2275C42.7092 133 41.1369 131.14 41.1367 129.377C41.1367 127.614 42.7091 125.753 45.2275 125.753H68.4082V97.8408Z" stroke="url(#paint0_linear_5740_1150)" stroke-width="10"/>
<defs>
<linearGradient id="paint0_linear_5740_1150" x1="0" y1="0" x2="137.831" y2="144.823" gradientUnits="userSpaceOnUse">
<stop stop-color="#FFCC00"/>
<stop offset="0.322115" stop-color="#FFD737"/>
<stop offset="1" stop-color="#FFD00C"/>
</linearGradient>
</defs>
</svg>
