<svg width="66" height="63" viewBox="0 0 66 63" fill="none" xmlns="http://www.w3.org/2000/svg">
<path d="M36.0983 63H28.3417L29.8333 62.0156C30.8278 61.3594 31.9092 60.6244 33.0777 59.8106C34.2462 58.9969 35.3276 58.2619 36.3221 57.6056L37.8137 56.6213C41.8412 56.3062 45.558 55.02 48.964 52.7625C52.3699 50.505 55.0674 47.4862 57.0562 43.7062C52.7801 43.2863 48.7278 42.1444 44.8992 40.2806C41.0706 38.4169 37.6397 35.8838 34.6067 32.6813C31.5736 29.4788 29.1621 25.8562 27.3721 21.8137C25.5821 17.7712 24.5131 13.4925 24.165 8.9775C20.3364 11.235 17.3406 14.3456 15.1777 18.3094C13.0148 22.2731 11.9333 26.565 11.9333 31.185V32.13L11.0383 32.5631C10.4417 32.8519 9.78285 33.1538 9.06187 33.4688C8.3409 33.7837 7.68208 34.0856 7.08542 34.3744L6.19042 34.8075C6.09097 34.23 6.02882 33.6263 6.00396 32.9963C5.9791 32.3662 5.96667 31.7625 5.96667 31.185C5.96667 23.52 8.27875 16.7606 12.9029 10.9069C17.5271 5.05312 23.4192 1.4175 30.5792 0C29.6842 5.1975 29.9576 10.2769 31.3996 15.2381C32.8415 20.1994 35.3276 24.5438 38.8579 28.2712C42.3882 31.9987 46.5027 34.6237 51.2015 36.1462C55.9002 37.6688 60.7108 37.9575 65.6333 37.0125C64.3406 44.5725 60.9097 50.7938 55.3408 55.6763C49.7719 60.5588 43.3578 63 36.0983 63ZM14.9167 56.7H28.3417C29.5847 56.7 30.6413 56.2406 31.5115 55.3219C32.3816 54.4031 32.8167 53.2875 32.8167 51.975C32.8167 50.6625 32.394 49.5469 31.5487 48.6281C30.7035 47.7094 29.6842 47.25 28.4908 47.25H24.6125L23.1208 43.47C22.4247 41.7375 21.3308 40.3594 19.8392 39.3356C18.3475 38.3119 16.7067 37.8 14.9167 37.8C12.4306 37.8 10.3174 38.7056 8.57708 40.5169C6.83681 42.3281 5.96667 44.5725 5.96667 47.25C5.96667 49.875 6.83681 52.1063 8.57708 53.9437C10.3174 55.7812 12.4306 56.7 14.9167 56.7ZM14.9167 63C10.7897 63 7.27187 61.4644 4.36312 58.3931C1.45437 55.3219 0 51.6075 0 47.25C0 42.8925 1.45437 39.1781 4.36312 36.1069C7.27187 33.0356 10.7897 31.5 14.9167 31.5C17.9 31.5 20.6223 32.3531 23.0835 34.0594C25.5448 35.7656 27.3721 38.0625 28.5654 40.95C31.3996 41.055 33.8111 42.1706 35.8 44.2969C37.7889 46.4231 38.7833 48.9825 38.7833 51.975C38.7833 55.02 37.764 57.6187 35.7254 59.7712C33.6868 61.9237 31.2256 63 28.3417 63H14.9167Z" fill="#F23333"/>
</svg>
