<svg width="60" height="70" viewBox="0 0 60 70" fill="none" xmlns="http://www.w3.org/2000/svg">
<path d="M18.2704 2.90341L17.1076 6.36364H4.2769C1.91124 6.36364 0 8.25947 0 10.6061C0 12.9527 1.91124 14.8485 4.2769 14.8485H55.5998C57.9654 14.8485 59.8767 12.9527 59.8767 10.6061C59.8767 8.25947 57.9654 6.36364 55.5998 6.36364H42.769L41.6063 2.90341C41.0182 1.16667 39.3876 0 37.5432 0H22.3335C20.489 0 18.8585 1.16667 18.2704 2.90341ZM55.5998 21.2121H4.2769L7.09699 64.0473C7.31083 67.4015 10.1176 70 13.499 70H46.3777C49.7591 70 52.5658 67.4015 52.7797 64.0473L55.5998 21.2121Z" fill="#EF0000" fill-opacity="0.8"/>
</svg>
