<svg width="157" height="138" viewBox="0 0 157 138" fill="none" xmlns="http://www.w3.org/2000/svg">
<path d="M35.79 2.96514C37.1699 1.11949 39.3778 0 41.7082 0H115.302C117.633 0 119.841 1.08924 121.221 2.96514L155.564 48.9551C157.65 51.7387 157.435 55.5812 155.104 58.153L83.9635 135.61C82.5836 137.123 80.5905 138 78.5053 138C76.4201 138 74.4576 137.123 73.0471 135.61L1.90609 58.153C-0.455057 55.5812 -0.639043 51.7387 1.44612 48.9551L35.79 2.96514ZM47.5958 15.0072C46.5839 15.7637 46.3079 17.1252 46.9518 18.1842L64.5531 47.1397L19.4154 50.831C18.1581 50.9217 17.1769 51.9807 17.1769 53.2515C17.1769 54.5223 18.1581 55.551 19.4154 55.672L78.2906 60.5131C78.4133 60.5131 78.5666 60.5131 78.6893 60.5131L137.565 55.672C138.822 55.5812 139.803 54.5223 139.803 53.2515C139.803 51.9807 138.822 50.952 137.565 50.831L92.4268 47.1094L110.028 18.1842C110.672 17.1252 110.396 15.7334 109.384 15.0072C108.372 14.2811 106.962 14.4021 106.103 15.3098L78.5053 44.8402L50.8768 15.3098C50.0182 14.4021 48.6077 14.2811 47.5958 15.0072Z" fill="#2870B3" fill-opacity="0.9"/>
</svg>
