<svg width="121" height="108" viewBox="0 0 121 108" fill="none" xmlns="http://www.w3.org/2000/svg">
<path d="M40.2325 105.158L3.025 70.2C2.01667 69.2526 1.26042 68.2105 0.75625 67.0737C0.252083 65.9368 0 64.7526 0 63.5211C0 62.2895 0.252083 61.1053 0.75625 59.9684C1.26042 58.8316 2.01667 57.7895 3.025 56.8421L37.8125 24.3L21.78 9.23684L31.1575 0L91.6575 56.8421C92.6658 57.7895 93.3969 58.8316 93.8506 59.9684C94.3044 61.1053 94.5312 62.2895 94.5312 63.5211C94.5312 64.7526 94.3044 65.9368 93.8506 67.0737C93.3969 68.2105 92.6658 69.2526 91.6575 70.2L54.45 105.158C53.4417 106.105 52.3325 106.816 51.1225 107.289C49.9125 107.763 48.6521 108 47.3413 108C46.0304 108 44.77 107.763 43.56 107.289C42.35 106.816 41.2408 106.105 40.2325 105.158ZM47.3413 33.2526L14.9738 63.6632H79.7088L47.3413 33.2526ZM107.69 108C104.06 108 100.985 106.792 98.4638 104.376C95.9429 101.961 94.6825 99 94.6825 95.4947C94.6825 92.9368 95.3631 90.5211 96.7244 88.2474C98.0856 85.9737 99.6233 83.7474 101.338 81.5684L107.69 73.8947L114.345 81.5684C115.958 83.7474 117.471 85.9737 118.883 88.2474C120.294 90.5211 121 92.9368 121 95.4947C121 99 119.689 101.961 117.068 104.376C114.446 106.792 111.32 108 107.69 108Z" fill="white"/>
</svg>
