<svg width="60" height="70" viewBox="0 0 60 70" fill="none" xmlns="http://www.w3.org/2000/svg">
<circle cx="30.5" cy="40.5" r="17.5" fill="white"/>
<path d="M21.5003 0.724966C22.7461 -0.278833 24.5814 -0.240225 25.7736 0.840789C27.4213 2.33362 28.8948 3.98088 30.3148 5.65388C32.1232 7.7773 34.2934 10.5828 36.3831 13.9159C37.0797 13.0408 37.7227 12.2687 38.2853 11.6123C38.4327 11.445 38.58 11.2649 38.7274 11.0847C39.7857 9.82351 41.0985 8.24059 42.8533 8.24059C44.6484 8.24059 45.9076 9.77203 46.9792 11.0847C47.1534 11.3035 47.3275 11.5094 47.5017 11.7024C48.8814 13.2982 50.7167 15.6018 52.5519 18.4459C56.1956 24.0955 60 32.1387 60 41.1729C60 57.0922 46.564 70 29.9933 70C13.4226 70 0 57.105 0 41.1858C0 29.4619 5.50569 19.3081 10.7837 12.2301C13.4494 8.66528 16.1018 5.80831 18.0978 3.85219C19.1962 2.77117 20.3081 1.70303 21.5137 0.737836L21.5003 0.724966ZM30.2344 57.6584C33.6236 57.6584 36.6242 56.7576 39.4508 54.9559C45.0904 51.1723 46.6041 43.6052 43.215 37.6596C42.6122 36.5014 41.0717 36.4242 40.2009 37.4023L36.8252 41.1729C35.9411 42.151 34.347 42.1253 33.5164 41.1086C31.1989 38.2645 26.939 33.0782 24.7689 30.4271C24.0455 29.5392 22.7327 29.3976 21.8888 30.1826C19.4374 32.4733 14.99 37.4923 14.99 43.6052C14.99 52.4335 21.7683 57.6584 30.221 57.6584H30.2344Z" fill="#FAAD1D"/>
</svg>
