<svg width="62" height="61" viewBox="0 0 62 61" fill="none" xmlns="http://www.w3.org/2000/svg">
<path d="M25.3952 0.825462C24.6981 0.128428 23.6811 -0.152634 22.7213 0.105943C21.7614 0.36452 21.0187 1.09528 20.7787 2.03965L19.0304 8.80763C18.9047 9.3023 18.3905 9.5946 17.8992 9.44845L11.066 7.55971C10.1061 7.28989 9.07771 7.55971 8.38067 8.2455C7.68364 8.93129 7.4094 9.94312 7.68364 10.8875L9.61477 17.6105C9.75189 18.0939 9.45479 18.5998 8.96344 18.7235L2.07309 20.4436C1.11324 20.6797 0.35907 21.4217 0.0962534 22.3661C-0.166563 23.3104 0.119107 24.311 0.827568 24.9968L5.91249 29.8648C6.27815 30.2133 6.27815 30.7979 5.91249 31.1577L0.838995 36.0257C0.130534 36.7115 -0.155136 37.7121 0.10768 38.6564C0.370497 39.6008 1.12466 40.3316 2.08451 40.5789L8.96344 42.299C9.46622 42.4227 9.76332 42.9286 9.61477 43.412L7.68364 50.1238C7.4094 51.0681 7.68364 52.0799 8.38067 52.7657C9.07771 53.4515 10.1061 53.7213 11.066 53.4515L17.8992 51.5516C18.3905 51.4166 18.9047 51.709 19.0304 52.1924L20.7787 58.9603C21.0187 59.9047 21.7729 60.6467 22.7327 60.9053C23.6926 61.1639 24.7096 60.8828 25.4066 60.1858L30.3544 55.1829C30.7086 54.8231 31.3028 54.8231 31.6685 55.1829L36.6048 60.1858C37.3019 60.8828 38.3189 61.1639 39.2787 60.9053C40.2386 60.6467 40.9813 59.9047 41.2327 58.9603L42.981 52.2036C43.1067 51.7089 43.6209 51.4166 44.1122 51.5628L50.9455 53.4628C51.9053 53.7326 52.9337 53.4628 53.6307 52.777C54.3278 52.0912 54.602 51.0794 54.3278 50.135L52.3967 43.412C52.2595 42.9286 52.5566 42.4227 53.048 42.299L59.9269 40.5789C60.8868 40.3428 61.6409 39.6008 61.9037 38.6564C62.1666 37.7121 61.8809 36.7002 61.1724 36.0257L56.0875 31.1577C55.7219 30.8092 55.7219 30.2246 56.0875 29.8648L61.1724 24.9968C61.8809 24.311 62.1666 23.3104 61.9037 22.3661C61.6409 21.4217 60.8868 20.6909 59.9269 20.4436L53.048 18.7235C52.5452 18.5998 52.2481 18.0939 52.3967 17.6105L54.3278 10.8875C54.602 9.94312 54.3278 8.93129 53.6307 8.2455C52.9337 7.55971 51.9053 7.28989 50.9455 7.55971L44.1122 9.45969C43.6209 9.5946 43.1067 9.30229 42.981 8.81887L41.2327 2.03965C40.9927 1.09528 40.2386 0.353278 39.2787 0.094701C38.3189 -0.163876 37.3019 0.117186 36.6048 0.81422L31.657 5.82837C31.3028 6.18813 30.7086 6.18813 30.343 5.82837L25.3952 0.825462Z" fill="white" fill-opacity="0.9"/>
</svg>
