<svg width="26" height="24" viewBox="0 0 26 24" fill="none" xmlns="http://www.w3.org/2000/svg">
<path d="M14.1047 0.40082C13.48 -0.133607 12.515 -0.133607 11.8953 0.40082L0.518327 10.1518C0.0307417 10.5737 -0.131787 11.2253 0.112006 11.7972C0.355799 12.3692 0.950043 12.7489 1.62047 12.7489H2.43311V20.9997C2.43311 22.6546 3.89079 24 5.68368 24H20.3112C22.1041 24 23.5618 22.6546 23.5618 20.9997V12.7489H24.3744C25.0449 12.7489 25.6442 12.3692 25.888 11.7972C26.1318 11.2253 25.9693 10.569 25.4817 10.1518L14.1047 0.40082ZM12.1848 14.9991H13.8101C15.156 14.9991 16.248 16.007 16.248 17.2493V21.7498H9.74689V17.2493C9.74689 16.007 10.8389 14.9991 12.1848 14.9991Z" fill="black"/>
</svg>
