<svg width="16" height="24" viewBox="0 0 16 24" fill="none" xmlns="http://www.w3.org/2000/svg">
<path d="M3.1 7.5C3.1 5.01562 5.18281 3 7.75 3C10.3172 3 12.4 5.01562 12.4 7.5C12.4 9.50156 11.0486 11.1984 9.17891 11.7844C7.80328 12.2156 6.2 13.4391 6.2 15.375V16.5C6.2 17.3297 6.89266 18 7.75 18C8.60734 18 9.3 17.3297 9.3 16.5V15.375C9.3 15.2953 9.32906 15.1828 9.46953 15.0328C9.61484 14.8781 9.85219 14.7281 10.1331 14.6391C13.2477 13.6687 15.5 10.8422 15.5 7.5C15.5 3.35625 12.0319 0 7.75 0C3.46812 0 0 3.35625 0 7.5C0 8.32969 0.692656 9 1.55 9C2.40734 9 3.1 8.32969 3.1 7.5ZM7.75 24C8.82047 24 9.6875 23.1609 9.6875 22.125C9.6875 21.0891 8.82047 20.25 7.75 20.25C6.67953 20.25 5.8125 21.0891 5.8125 22.125C5.8125 23.1609 6.67953 24 7.75 24Z" fill="#808080"/>
</svg>
