<svg width="27" height="25" viewBox="0 0 27 25" fill="none" xmlns="http://www.w3.org/2000/svg">
<path d="M3 5.64516C3 2.5252 5.34844 0 8.25 0C11.1516 0 13.5 2.5252 13.5 5.64516C13.5 8.76512 11.1516 11.2903 8.25 11.2903C5.34844 11.2903 3 8.76512 3 5.64516ZM0 22.5806C0 17.6814 3.69375 13.7097 8.25 13.7097C12.8062 13.7097 16.5 17.6814 16.5 22.5806V22.8831C16.5 24.0524 15.6188 25 14.5313 25H1.96875C0.88125 25 0 24.0524 0 22.8831V22.5806ZM20.25 2.41935C22.7344 2.41935 24.75 4.58669 24.75 7.25806C24.75 9.92944 22.7344 12.0968 20.25 12.0968C17.7656 12.0968 15.75 9.92944 15.75 7.25806C15.75 4.58669 17.7656 2.41935 20.25 2.41935ZM20.25 14.5161C23.9766 14.5161 27 17.7671 27 21.7742V22.9032C27 24.0625 26.1281 25 25.05 25H18.2625C18.5719 24.37 18.75 23.6492 18.75 22.8831V22.5806C18.75 19.9849 17.9344 17.5958 16.5703 15.6905C17.6297 14.9496 18.8953 14.5161 20.25 14.5161Z" fill="#F6F5F5" fill-opacity="0.8"/>
</svg>
