<svg width="23" height="20" viewBox="0 0 23 20" fill="none" xmlns="http://www.w3.org/2000/svg">
<path d="M6.25 0C6.94141 0 7.5 0.558594 7.5 1.25V2.5H12.5C13.1914 2.5 13.75 3.05859 13.75 3.75C13.75 4.44141 13.1914 5 12.5 5H12.125L11.7969 5.90234C11.1562 7.66797 10.1914 9.28125 8.97656 10.668C9.53125 11.0117 10.1094 11.3164 10.7109 11.5859L12.6797 12.4609L15.1094 6.99219C15.3086 6.53906 15.7578 6.25 16.25 6.25C16.7422 6.25 17.1914 6.53906 17.3906 6.99219L22.3906 18.2422C22.6719 18.875 22.3867 19.6133 21.7578 19.8906C21.1289 20.168 20.3867 19.8867 20.1094 19.2578L19.3281 17.5H13.1758L12.3945 19.2578C12.1133 19.8906 11.375 20.1719 10.7461 19.8906C10.1172 19.6094 9.83203 18.8711 10.1133 18.2422L11.668 14.7461L9.69922 13.8711C8.80078 13.4727 7.94141 12.9961 7.12891 12.4492C6.29688 13.1211 5.38672 13.707 4.41406 14.1953L3.05859 14.8672C2.44141 15.1758 1.69141 14.9258 1.38281 14.3086C1.07422 13.6914 1.32422 12.9414 1.94141 12.6328L3.28906 11.957C3.92578 11.6367 4.53125 11.2656 5.10156 10.8516C4.5625 10.3555 4.05469 9.82031 3.58203 9.25391L3.1875 8.77734C2.74609 8.24609 2.81641 7.45703 3.34766 7.01562C3.87891 6.57422 4.66797 6.64453 5.10938 7.17578L5.50781 7.65234C5.95703 8.19531 6.44922 8.69922 6.96875 9.16406C8.04297 7.97656 8.89062 6.58203 9.44922 5.04688L9.46875 5H1.25391C0.558594 5 0 4.44141 0 3.75C0 3.05859 0.558594 2.5 1.25 2.5H5V1.25C5 0.558594 5.55859 0 6.25 0ZM16.25 10.5781L14.2852 15H18.2148L16.25 10.5781Z" fill="#F6F5F5" fill-opacity="0.8"/>
</svg>
