<svg width="51" height="46" viewBox="0 0 51 46" fill="none" xmlns="http://www.w3.org/2000/svg">
<path d="M40.4912 35.9016C38.5887 31.7059 34.0166 28.75 28.6875 28.75H22.3125C16.9834 28.75 12.4113 31.7059 10.5088 35.9016C6.9627 32.5504 4.78125 28.0043 4.78125 23C4.78125 12.677 14.0549 4.3125 25.5 4.3125C36.9451 4.3125 46.2188 12.677 46.2188 23C46.2188 28.0043 44.0373 32.5414 40.4912 35.9016ZM36.4969 38.8395C33.3094 40.6453 29.5441 41.6875 25.5 41.6875C21.4559 41.6875 17.6906 40.6453 14.4932 38.8395C15.2203 35.5422 18.4477 33.0625 22.3125 33.0625H28.6875C32.5523 33.0625 35.7797 35.5422 36.5068 38.8395H36.4969ZM25.5 46C39.5848 46 51 35.7039 51 23C51 10.2961 39.5848 0 25.5 0C11.4152 0 0 10.2961 0 23C0 35.7039 11.4152 46 25.5 46ZM25.5 21.5625C23.2986 21.5625 21.5156 19.9543 21.5156 17.9688C21.5156 15.9832 23.2986 14.375 25.5 14.375C27.7014 14.375 29.4844 15.9832 29.4844 17.9688C29.4844 19.9543 27.7014 21.5625 25.5 21.5625ZM16.7344 17.9688C16.7344 22.3352 20.659 25.875 25.5 25.875C30.341 25.875 34.2656 22.3352 34.2656 17.9688C34.2656 13.6023 30.341 10.0625 25.5 10.0625C20.659 10.0625 16.7344 13.6023 16.7344 17.9688Z" fill="white" fill-opacity="0.8"/>
</svg>
