<svg width="27" height="26" viewBox="0 0 27 26" fill="none" xmlns="http://www.w3.org/2000/svg">
<path d="M10.0286 11.6396C13.2252 11.6396 15.8143 9.03526 15.8143 5.81981C15.8143 2.60436 13.2252 0 10.0286 0C6.83196 0 4.24286 2.60436 4.24286 5.81981C4.24286 9.03526 6.83196 11.6396 10.0286 11.6396ZM8.59661 14.3555C3.8475 14.3555 0 18.2257 0 23.0028C0 23.7982 0.64125 24.4432 1.43196 24.4432H13.5579C11.8125 22.3772 10.8 19.7146 10.8 16.8968V15.3885C10.8 15.0345 10.8482 14.6853 10.9398 14.3555H8.59661ZM20.6984 23.3035L20.0571 23.609V14.4865L24.6857 16.0384V16.989C24.6857 19.6952 23.1332 22.1541 20.6984 23.3083V23.3035ZM19.5702 12.1974L14.1702 14.0063C13.5386 14.2197 13.1143 14.8114 13.1143 15.4807V16.989C13.1143 20.5973 15.1875 23.8806 18.4275 25.4132L19.3195 25.8351C19.5509 25.9418 19.8016 26 20.0523 26C20.303 26 20.5586 25.9418 20.7852 25.8351L21.6771 25.4132C24.9268 23.8758 27 20.5924 27 16.9841V15.4758C27 14.8066 26.5757 14.2149 25.9441 14.0015L20.5441 12.1925C20.2259 12.0858 19.8836 12.0858 19.5702 12.1925V12.1974Z" fill="#F6F5F5" fill-opacity="0.8"/>
</svg>
