<svg width="109" height="112" viewBox="0 0 109 112" fill="none" xmlns="http://www.w3.org/2000/svg">
<g clip-path="url(#clip0_7175_1480)">
<path fill-rule="evenodd" clip-rule="evenodd" d="M60.2368 86.168H48.5839V104.852C49.9451 105.375 50.9145 106.726 50.9145 108.31C50.9145 110.348 49.3092 112 47.3289 112C45.3487 112 43.7434 110.348 43.7434 108.31C43.7434 106.797 44.6283 105.496 45.8947 104.926V86.168H34.2418V97.6557C35.603 98.1793 36.5724 99.53 36.5724 101.114C36.5724 103.152 34.9671 104.804 32.9868 104.804C31.0066 104.804 29.4013 103.152 29.4013 101.114C29.4013 99.6005 30.2862 98.2998 31.5526 97.7304V85.8016C28.5605 84.9051 26.2149 82.4466 25.4047 79.341H13.9371C13.4284 80.742 12.116 81.7397 10.5773 81.7397C8.59707 81.7397 6.99178 80.0876 6.99178 78.0494C6.99178 76.0113 8.59707 74.3592 10.5773 74.3592C12.0476 74.3592 13.3112 75.2699 13.8645 76.5733H25.0987V64.5799H11.2479C10.7392 65.9809 9.4269 66.9786 7.88816 66.9786C5.90792 66.9786 4.30263 65.3264 4.30263 63.2883C4.30263 61.2502 5.90792 59.598 7.88816 59.598C9.35846 59.598 10.6221 60.5088 11.1753 61.8122H25.0987V49.8188H6.94531C6.43661 51.2198 5.12427 52.2175 3.58553 52.2175C1.60529 52.2175 0 50.5653 0 48.5272C0 46.489 1.60529 44.8369 3.58553 44.8369C5.05583 44.8369 6.31942 45.7477 6.8727 47.0511H25.0987V35.0577H13.9371C13.4284 36.4587 12.116 37.4563 10.5773 37.4563C8.59707 37.4563 6.99178 35.8042 6.99178 33.7661C6.99178 31.7279 8.59707 30.0758 10.5773 30.0758C12.0476 30.0758 13.3112 30.9865 13.8645 32.29H25.4547C26.3084 29.2717 28.62 26.8925 31.5526 26.0139V14.085C30.2862 13.5156 29.4013 12.2151 29.4013 10.7018C29.4013 8.66373 31.0066 7.01153 32.9868 7.01153C34.9671 7.01153 36.5724 8.66373 36.5724 10.7018C36.5724 12.2855 35.603 13.6362 34.2418 14.1598V25.6474H45.8947V11.3173C44.6283 10.7479 43.7434 9.44736 43.7434 7.9341C43.7434 5.89602 45.3487 4.24382 47.3289 4.24382C49.3092 4.24382 50.9145 5.89602 50.9145 7.9341C50.9145 9.51781 49.9451 10.8685 48.5839 11.392V25.6474H60.2368V7.07349C58.9704 6.50405 58.0855 5.20354 58.0855 3.69028C58.0855 1.65219 59.6908 0 61.6711 0C63.6513 0 65.2566 1.65219 65.2566 3.69028C65.2566 5.27398 64.2872 6.62466 62.926 7.14822V25.6474H74.5789V14.085C73.3125 13.5156 72.4276 12.2151 72.4276 10.7018C72.4276 8.66373 74.0329 7.01153 76.0132 7.01153C77.9934 7.01153 79.5987 8.66373 79.5987 10.7018C79.5987 12.2855 78.6293 13.6362 77.2681 14.1598V25.9624C80.2855 26.7962 82.6742 29.2104 83.5453 32.29H95.1355C95.6887 30.9865 96.9524 30.0758 98.4227 30.0758C100.403 30.0758 102.008 31.7279 102.008 33.7661C102.008 35.8042 100.403 37.4563 98.4227 37.4563C96.884 37.4563 95.5717 36.4587 95.0629 35.0577H83.9013V47.0511H97.8246C98.3779 45.7477 99.6416 44.8369 101.112 44.8369C103.092 44.8369 104.697 46.489 104.697 48.5272C104.697 50.5653 103.092 52.2175 101.112 52.2175C99.5731 52.2175 98.2608 51.2198 97.752 49.8188H83.9013V61.8122H102.127C102.681 60.5088 103.944 59.598 105.414 59.598C107.395 59.598 109 61.2502 109 63.2883C109 65.3264 107.395 66.9786 105.414 66.9786C103.876 66.9786 102.563 65.9809 102.055 64.5799H83.9013V76.5733H95.1355C95.6887 75.2699 96.9524 74.3592 98.4227 74.3592C100.403 74.3592 102.008 76.0113 102.008 78.0494C102.008 80.0876 100.403 81.7397 98.4227 81.7397C96.884 81.7397 95.5717 80.742 95.0629 79.341H83.5953C82.769 82.5084 80.3455 85.0027 77.2681 85.8531V97.6557C78.6293 98.1793 79.5987 99.53 79.5987 101.114C79.5987 103.152 77.9934 104.804 76.0132 104.804C74.0329 104.804 72.4276 103.152 72.4276 101.114C72.4276 99.6005 73.3125 98.2998 74.5789 97.7304V86.168H62.926V100.423C64.2872 100.947 65.2566 102.298 65.2566 103.881C65.2566 105.92 63.6513 107.572 61.6711 107.572C59.6908 107.572 58.0855 105.92 58.0855 103.881C58.0855 102.368 58.9704 101.068 60.2368 100.498V86.168ZM48.6484 42.081C51.6316 43.3844 54.5 47.4133 54.5 47.4133C54.5 47.4133 57.3684 43.3844 60.3516 42.081C63.3347 40.7776 71.7105 40.7776 71.7105 40.7776V45.6635C73.7726 45.5333 75.3656 45.5098 75.3656 45.5098V68.8162C75.3656 68.8162 67.5492 67.8696 63.9859 68.8162C60.4224 69.7625 54.4451 70.9456 54.4451 70.9456C54.4451 70.9456 48.4679 69.7625 44.9044 68.8162C41.3411 67.8696 33.5247 68.8162 33.5247 68.8162V45.5098C33.5247 45.5098 35.1745 45.5342 37.2895 45.6705V40.7776C37.2895 40.7776 45.6653 40.7776 48.6484 42.081Z" fill="white"/>
</g>
<defs>
<clipPath id="clip0_7175_1480">
<rect width="109" height="112" fill="white"/>
</clipPath>
</defs>
</svg>
