<svg width="1604" height="1158" viewBox="0 0 1604 1158" fill="none" xmlns="http://www.w3.org/2000/svg">
<path d="M994.331 219.773L1006.91 223.578L1015.36 204.306L1034.46 207.634L1043.18 194.231L1050.06 198.578L1038.4 216.505L1020.31 213.352L1011.52 233.399L992.583 227.674L994.331 219.773Z" fill="#9ED16F"/>
<path d="M187.381 912.917L199.964 916.722L208.415 897.451L227.509 900.778L236.227 887.374L243.113 891.721L231.455 909.648L213.359 906.496L204.568 926.544L185.634 920.818L187.381 912.917Z" fill="#9ED16F"/>
<path d="M1071.86 1141.08C1071.86 1141.08 1139.01 916.853 1144.4 867.392C1149.78 817.932 1112.24 833.258 1112.24 833.258C1112.24 833.258 1143.82 739.012 1120.98 716.642C1098.14 694.274 1077.54 735.968 1077.54 735.968C1077.54 735.968 1070.62 621.56 1046.27 621.517C1000.91 621.438 1001.81 746.292 1001.81 746.292C1001.81 746.292 990.232 697.411 965.945 710.812C929.318 731.021 981.841 828.978 981.841 828.978C981.841 828.978 935.171 829.012 918.777 852.197C889.365 893.795 1071.86 1141.08 1071.86 1141.08Z" fill="#7772D6"/>
<path d="M1049.91 1111.4C1049.91 1111.4 1243.48 1079.51 1285.58 1045.72C1327.69 1011.92 1286.01 996.687 1286.01 996.687C1286.01 996.687 1383.26 947.574 1382.13 914.179C1381 880.784 1332.69 897.761 1332.69 897.761C1332.69 897.761 1414.63 805.712 1395.23 788.231C1359.1 755.669 1264.38 851.357 1264.38 851.357C1264.38 851.357 1292.51 805.851 1262.89 798.649C1218.21 787.789 1185.25 899.996 1185.25 899.996C1185.25 899.996 1193.62 855.683 1162.82 861.587C1107.55 872.18 1049.91 1111.4 1049.91 1111.4Z" fill="#7772D6"/>
<path d="M1162.82 861.589C1193.7 856.087 1185.25 899.998 1185.25 899.998C1185.25 899.998 1218.22 787.791 1262.89 798.651C1292.51 805.853 1264.38 851.358 1264.38 851.358C1264.38 851.358 1359.1 755.671 1395.23 788.232L1050.56 1111.45C1056.7 1080.58 1111.05 870.811 1162.82 861.589Z" fill="#45258F"/>
<path d="M994.839 1137.71C994.839 1137.71 1096.78 1035.57 1148.12 1024.93C1199.45 1014.29 1190.22 1050.28 1190.22 1050.28C1190.22 1050.28 1292.07 962.525 1315.68 983.787C1339.28 1005.05 1313.75 1025.58 1313.75 1025.58C1313.75 1025.58 1398.59 1010.77 1410.73 1038.2C1429.39 1080.34 1289.86 1103.28 1289.86 1103.28C1289.86 1103.28 1348.33 1107.28 1334.77 1133.7C1314.32 1173.56 994.839 1137.71 994.839 1137.71Z" fill="#7772D6"/>
<path d="M1410.73 1038.2C1398.59 1010.77 1313.75 1025.58 1313.75 1025.58C1313.75 1025.58 1339.28 1005.05 1315.67 983.788C1292.07 962.526 1193.39 1038.35 1193.39 1038.35C1193.39 1038.35 1216.65 994.527 1165.32 1005.16C1113.98 1015.8 994.839 1137.71 994.839 1137.71L1410.73 1038.2Z" fill="#45258F"/>
<path d="M832.546 84.3075C866.859 89.8706 877.05 134.241 848.524 154.087C843.401 157.651 839.854 163.013 838.345 169.011L833.152 189.65C831.721 195.338 826.095 198.989 820.227 198.037L807.227 195.931C801.358 194.979 797.216 189.745 797.711 183.905C799.514 162.596 801.745 154.867 794.714 145.364C774.15 117.562 798.225 78.7426 832.546 84.3075Z" fill="#62BDF3"/>
<path d="M829.043 174.513C831.277 156.257 834.413 136.984 835.48 131.517C855.149 132.585 847.674 112.16 838.597 120.466C836.011 122.833 834.789 126.043 833.982 129.56C827.449 128.98 821.063 127.143 815.243 124.181C815.557 119.679 816.007 116.268 814.731 113.386C812.804 109.035 807.207 107.849 804.93 112.09C804.074 113.682 803.925 115.719 804.544 117.406C805.861 121.006 809.834 123.384 813.292 125.246C812.259 139.76 810.824 154.385 809.02 168.789L810.876 169.016C812.653 154.845 814.07 140.46 815.1 126.178C820.878 129.008 827.168 130.781 833.602 131.378C832.258 138.367 829.282 157.154 827.186 174.294L829.043 174.513ZM844.821 127.212C843.074 129.068 840.146 129.883 835.872 129.691C836.61 126.589 837.704 123.799 839.871 121.817C844.755 117.346 847.753 124.098 844.821 127.212ZM813.015 114.124C814.088 116.545 813.68 119.647 813.434 123.213C810.625 121.637 807.36 119.667 806.303 116.78C805.563 114.756 806.397 111.894 808.488 111.367C808.714 111.31 812.263 112.425 813.015 114.124Z" fill="#D1EAF2"/>
<path d="M838.5 168.502C838.453 168.673 838.391 168.839 838.348 169.012L833.155 189.651C831.724 195.339 826.098 198.99 820.23 198.038L807.23 195.931C801.361 194.979 797.219 189.745 797.714 183.905C798.516 174.426 799.401 167.638 799.519 162.182L838.5 168.502Z" fill="#7772D6"/>
<path d="M857.983 68.8953L868.243 50.4424C869.235 48.6558 868.571 46.4155 866.759 45.4364C864.946 44.4591 862.672 45.1128 861.678 46.8984L851.418 65.3522C850.426 67.1388 851.089 69.3791 852.902 70.3582C854.725 71.3417 856.994 70.6722 857.983 68.8953Z" fill="#62BDF3"/>
<path d="M880.412 113.532L902.779 111.605C904.837 111.427 906.36 109.64 906.181 107.61C906.001 105.582 904.185 104.08 902.126 104.258L879.76 106.185C877.701 106.362 876.177 108.151 876.358 110.179C876.538 112.207 878.35 113.708 880.412 113.532Z" fill="#62BDF3"/>
<path d="M902.591 181.09C904.044 179.641 904.03 177.307 902.56 175.875C897.062 170.523 891.016 165.664 884.588 161.432C882.87 160.3 880.546 160.757 879.397 162.45C878.249 164.142 878.711 166.432 880.43 167.564C886.462 171.535 892.137 176.096 897.299 181.12C898.761 182.545 901.132 182.546 902.591 181.09Z" fill="#62BDF3"/>
<path d="M802.718 67.8985C804.716 67.3723 805.902 65.3513 805.368 63.3843C802.834 54.042 801.281 44.4087 800.754 34.7533C800.642 32.72 798.881 31.1563 796.816 31.2695C794.752 31.3792 793.168 33.1153 793.28 35.1495C793.834 45.3135 795.469 55.4536 798.136 65.2877C798.673 67.2662 800.736 68.4221 802.718 67.8985Z" fill="#62BDF3"/>
<path d="M779.684 96.2244C780.28 94.2742 779.16 92.2179 777.181 91.6297L753.93 84.7258C751.948 84.1385 749.862 85.2423 749.266 87.1925C748.67 89.1427 749.79 91.199 751.769 91.7872L775.021 98.692C776.996 99.2766 779.086 98.179 779.684 96.2244Z" fill="#62BDF3"/>
<path d="M741.487 157.183C741.822 157.183 742.163 157.138 742.502 157.044C750.559 154.812 758.393 151.719 765.787 147.848C767.611 146.892 768.305 144.66 767.335 142.862C766.366 141.064 764.099 140.381 762.274 141.336C755.353 144.96 748.019 147.856 740.476 149.944C738.487 150.495 737.327 152.531 737.886 154.492C738.351 156.119 739.853 157.183 741.487 157.183Z" fill="#62BDF3"/>
<path d="M400.916 320.178L412.646 292.848L442.149 286.876C445.508 286.196 446.618 282.014 444.026 279.8L421.268 260.362L424.619 230.873C425.002 227.514 421.309 225.182 418.37 226.927L392.575 242.243L365.143 229.99C362.019 228.595 358.627 231.336 359.401 234.628L366.217 263.532L345.912 285.449C343.599 287.945 345.196 291.97 348.614 292.26L378.621 294.807L393.503 320.606C395.2 323.544 399.579 323.292 400.916 320.178Z" fill="#7772D6"/>
<path d="M214.168 226.402L218.99 245.535L251.094 241.291L261.647 268.41L286.199 269.104L285.842 281.348L253.005 280.421L243.005 254.721L209.606 259.136L202.349 230.345L214.168 226.402Z" fill="#9ED16F"/>
<path d="M500.202 1143.59H1064.54C1086.1 1143.59 1103.57 1125.73 1103.57 1103.7V1079.99C1103.57 1057.96 1086.1 1040.11 1064.54 1040.11H500.202C526.018 1068.94 526.464 1113.01 501.238 1142.38L500.202 1143.59Z" fill="#3B77BE"/>
<path d="M508.912 1051.96H821.924C843.479 1051.96 860.953 1069.82 860.953 1091.85C860.953 1113.87 843.479 1131.73 821.924 1131.73H508.885C523.511 1107.26 523.482 1076.37 508.912 1051.96Z" fill="#D1EAF2"/>
<path d="M698.454 968.239C697.633 966.722 698.881 964.968 700.779 964.968H999.391C1022.8 964.968 1041.77 981.791 1041.77 1002.54C1041.77 1023.3 1022.8 1040.12 999.391 1040.12H700.696C698.79 1040.12 697.538 1038.35 698.368 1036.83C710.192 1015.11 710.163 989.861 698.454 968.239Z" fill="#3797DB"/>
<path d="M700.341 971.961H848.333C875.803 971.961 898.07 986.058 898.07 1003.45C898.07 1020.84 875.802 1034.94 848.333 1034.94H699.367C709.551 1014.9 709.83 992.086 700.341 971.961Z" fill="#D1EAF2"/>
<path d="M738.565 986.888H757.84C761.985 986.888 765.344 988.26 765.344 989.951V990.226H738.565V986.888Z" fill="#96A65F"/>
<path d="M722.12 994.568C722.12 990.327 727.154 986.888 733.363 986.888H758.098C753.389 986.888 749.57 989.495 749.57 992.713L749.688 1075.04L736.02 1064.45L722.091 1075.04L722.12 994.568Z" fill="#9ED16F"/>
<path d="M753.355 962.256H927.102C942.509 962.256 955 947.651 955 929.634C955 911.618 942.509 897.011 927.102 897.011H753.355C766.635 915.096 767.154 941.626 754.596 960.402L753.355 962.256Z" fill="#D1EAF2"/>
<path d="M954.983 929.635C954.983 911.619 942.198 897.012 926.427 897.012H750.043C749.22 897.012 748.555 896.246 748.564 895.306C748.572 894.379 749.232 893.632 750.043 893.632H1029.85C1047.26 893.632 1061.37 909.751 1061.37 929.634C1061.37 949.518 1047.26 965.637 1029.85 965.637H750.044C749.232 965.637 748.571 964.888 748.564 963.962C748.557 963.021 749.221 962.255 750.044 962.255H926.427C942.197 962.256 954.983 947.652 954.983 929.635Z" fill="#45258F"/>
<path d="M783.698 913.044H802.972C807.117 913.044 810.477 914.39 810.477 916.048V916.318H783.698V913.044Z" fill="#3797DB"/>
<path d="M767.26 920.576C767.26 916.416 772.294 913.043 778.503 913.043H803.238C798.528 913.043 794.71 915.602 794.71 918.756L794.828 999.494L781.16 989.111L767.231 999.494L767.26 920.576Z" fill="#62BDF3"/>
<path d="M476.526 414.328L450.876 407.678L468.262 636.127L499.035 637.139L483.512 422.628C483.226 418.674 480.418 415.337 476.526 414.328Z" fill="#3B77BE"/>
<path d="M465.96 642.642C466.534 642.694 467.122 642.687 467.718 642.617C472.813 642.024 476.584 637.033 476.14 631.467L459.068 416.657C458.626 411.092 454.141 407.059 449.042 407.655C443.947 408.248 440.177 413.239 440.62 418.805L457.692 633.615C458.083 638.53 461.63 642.249 465.96 642.642Z" fill="#3797DB"/>
<path d="M702.031 654.083C702.02 654.242 702.013 654.398 701.999 654.557C701.195 663.296 694.322 669.832 686.648 669.156L470.029 650.055C462.354 649.378 456.785 641.744 457.588 633.005C457.623 632.636 457.672 632.272 457.727 631.911L702.031 654.083Z" fill="#3797DB"/>
<path d="M551.185 884.818C565.371 892.567 608.727 878.978 608.727 877.751C609.35 889.426 657.277 1003.69 657.277 1003.69L657.239 1038.85C657.239 1038.85 558.481 1043.49 559.903 1034.89C561.323 1026.29 566.634 1031.88 586.334 1015.64C588.083 1014.2 615.743 1007.88 608.257 991.746C593.184 959.26 561.165 905.097 551.185 884.818Z" fill="#EFAC7F"/>
<path d="M660.485 1040.1L552.382 1040.13C548.481 1039.74 547.569 1036.62 548.947 1034.72C551.785 1030.8 572.502 1021.57 586.429 1015.45C610.686 1018.24 653.328 1009.05 657.231 1003.6C667.498 1017.15 662.662 1039.66 660.485 1040.1Z" fill="#45258F"/>
<path d="M684.208 802.777C685.669 798.456 591.133 758.931 586.902 763.447C579.417 771.435 638.051 921.382 638.051 921.382L570.685 941.661C570.685 941.661 500.651 768.424 503.575 736.739C506.5 705.054 541.583 669.048 617.599 692.092C693.616 715.136 684.208 802.777 684.208 802.777Z" fill="#2D185D"/>
<path d="M488.461 904.527C504.418 901.664 525.103 900.85 541.662 900.567C539.711 915.093 530.235 989.574 531.966 994.15C538.985 1012.69 554.551 1021.37 554.551 1021.37C554.551 1021.37 481.145 1086.62 476.713 1079.08C472.281 1071.55 479.986 1072.56 484.779 1047.69C485.204 1045.49 495.817 1010.78 496.475 992.064C497.731 956.364 489.009 924.349 488.461 904.527Z" fill="#EFAC7F"/>
<path d="M512.016 660.862C522.256 655.479 548.841 655.291 578.074 657.158C635.065 660.796 691.32 671.846 745.535 689.54L781.815 701.379L781.696 664.733C781.696 664.733 897.105 645.708 901.121 673.89C907.168 716.327 899.665 802.484 861.211 821.714C741.773 881.444 574.397 726.555 573.792 746.821C572.978 774.035 549.689 875.308 543.738 919.65C527.18 919.932 498.73 919.921 486.392 917.13C483.991 830.268 482.865 676.185 512.016 660.862Z" fill="#45258F"/>
<path d="M556.796 1022.89L474.278 1087.84C471.007 1089.97 468.293 1088.12 468.136 1085.79C467.813 1080.99 477.898 1060.91 484.732 1047.48C505.292 1034.49 532.405 1000.62 531.919 993.971C540.62 1001.21 558.195 1021.19 556.796 1022.89Z" fill="#45258F"/>
<path d="M743.568 306.648C746.34 281.684 749.259 256.628 770.263 238.33C787.262 223.523 808.874 221.014 830.244 228.936C890.794 251.382 859.595 304.364 936.803 357.78C960.794 374.379 987.237 385.739 1005.3 408.089C1030.58 439.374 1021.04 477.005 997.994 502.129C887.743 622.343 764.656 459.991 755.82 421.02C749.246 392.029 741.786 322.719 743.568 306.648Z" fill="#5E2E0D"/>
<path d="M765.961 447.031C774.967 430.673 784.244 417.693 784.244 417.693C793.585 401.332 817.719 393.057 817.719 393.057C817.719 393.057 825.791 393.218 835.06 393.667C835.634 395.182 836.219 396.264 836.808 396.699C840.292 399.273 860.255 395.95 873.151 404.575C916.371 441.078 904.418 618.005 901.018 673.889L769.387 675.116C769.387 675.116 785.982 554.876 759.238 523.984C740.614 502.471 752.601 471.295 765.961 447.031Z" fill="#9ED16F"/>
<path d="M825.29 333.201C825.29 333.201 832.525 384.112 837.578 396.483C842.632 408.855 809.792 435.314 782.466 443.345C755.14 451.375 790.817 416.017 789.685 402.791C788.552 389.565 783.586 326.947 783.586 326.947L825.29 333.201Z" fill="#EFAC7F"/>
<path d="M784.962 344.906C784.164 334.547 783.583 326.948 783.583 326.948L825.285 333.202C825.285 333.202 826.337 339.182 827.5 347.64C810.594 357.303 795.39 354.254 784.962 344.906Z" fill="#D19369"/>
<path d="M812.21 240.21C812.21 240.21 828.649 243.859 838.797 259.119C848.947 274.38 855.911 319.305 822.482 340.274C789.054 361.244 763.056 331.581 762.625 302.65C762.193 273.718 768.487 235.108 812.21 240.21Z" fill="#EFAC7F"/>
<path d="M754.972 293.596C757.825 300.577 763.483 304.909 767.61 303.272C771.738 301.635 772.772 294.649 769.92 287.668C767.068 280.687 761.411 276.355 757.282 277.992C753.155 279.629 752.12 286.614 754.972 293.596Z" fill="#EFAC7F"/>
<path d="M807.281 239.262C807.281 239.262 828.237 285.572 846.648 289.709C865.058 293.844 864.793 317.147 864.793 317.147C864.793 317.147 864.381 263.335 847.126 250.991C829.873 238.649 807.281 239.262 807.281 239.262Z" fill="#5E2E0D"/>
<path d="M839.329 299.334C836.906 306.854 839.123 314.26 844.283 315.874C849.443 317.488 855.59 312.7 858.014 305.179C860.438 297.659 858.22 290.254 853.06 288.639C847.9 287.025 841.752 291.813 839.329 299.334Z" fill="#EFAC7F"/>
<path d="M603.892 633.672C611.791 630.859 623.547 630.51 623.349 629.482C622.556 625.323 587.667 638.659 592.381 632.593C595.004 629.216 621.115 617.249 627.464 619.226C633.623 621.141 674.06 632.323 674.06 632.323L784.573 606.805C784.573 606.805 812.468 544.351 815.191 490.696C838.249 493.769 853.947 499.383 873.988 510.342C864.325 561.653 840.832 644.827 814.867 660.434C803.943 667.001 673.511 652.576 673.511 652.576C673.511 652.576 644.768 650.576 640.071 648.796C636.508 647.446 627.337 642.357 622.348 640.965C611.008 637.802 590.803 645.744 590.74 643.558C590.696 641.962 595.822 636.547 603.892 633.672Z" fill="#EFAC7F"/>
<path d="M814.51 433.368C815.573 416.857 821.92 400.917 839.751 395.784C850.801 392.603 863.199 395.647 872.03 402.752C882.537 411.207 885.469 424.769 885.421 437.604C885.311 466.749 883.295 496.966 877.89 525.661C857.848 514.702 834.454 508.116 811.397 505.044C811.406 504.873 813.104 455.187 814.51 433.368Z" fill="#96A65F"/>
<path d="M1156.92 464.52L1328.26 433.087C1331.7 432.455 1333.97 429.195 1333.33 425.805L1311.86 312.248C1311.22 308.858 1307.91 306.621 1304.47 307.252L1133.14 338.685C1129.7 339.317 1127.43 342.577 1128.07 345.967L1149.53 459.524C1150.17 462.915 1153.48 465.152 1156.92 464.52Z" fill="#3797DB"/>
<path d="M1238.47 334.701L1290.63 325.133C1294.07 324.503 1296.34 321.243 1295.7 317.852L1292.43 300.573C1291.79 297.183 1288.48 294.946 1285.04 295.578L1232.89 305.146C1229.45 305.777 1227.18 309.037 1227.82 312.427L1231.08 329.707C1231.72 333.096 1235.03 335.332 1238.47 334.701Z" fill="#3797DB"/>
<path d="M1149.13 460.177C1150.02 463.285 1153.16 465.211 1156.38 464.62L1328.84 432.982C1332.05 432.393 1334.28 429.501 1333.99 426.3L1324.97 324.508C1324.81 322.754 1323.91 321.145 1322.49 320.08C1321.06 319.015 1319.25 318.591 1317.49 318.913L1125.91 354.06C1124.16 354.382 1122.63 355.414 1121.69 356.904C1120.75 358.394 1120.49 360.206 1120.97 361.895L1149.13 460.177Z" fill="#62BDF3"/>
<path d="M363.271 88.2415L392.611 96.1333L398.93 61.1033L389.328 59.4229L384.878 84.0952L365.839 78.9734L363.271 88.2415Z" fill="#9ED16F"/>
<path d="M1297.98 569.308C1290.64 568.719 1279.36 571.908 1274.3 575.287C1273.54 575.986 1267.72 578.268 1261.68 588.137L1263.04 589.066C1269.42 582.487 1273.71 581.013 1278.82 579.502C1287.24 577.37 1295.73 578.965 1296.43 579.333L1297.98 569.308Z" fill="#7772D6"/>
<path d="M1262.35 588.602C1262.35 588.602 1307.12 595.962 1302.94 630.417C1298.77 664.872 1251.54 691.677 1209.39 670.367C1152.69 641.7 1175.09 568.82 1215.44 563.183C1255.8 557.547 1262.35 588.602 1262.35 588.602Z" fill="#9ED16F"/>
<path d="M1243.36 573.431C1243.36 573.431 1231.68 561.618 1206.09 572.365C1180.5 583.112 1178.65 633.23 1201.47 630.318C1224.29 627.407 1261.61 580.662 1243.36 573.431Z" fill="#9ED16F"/>
<path d="M935.398 115.691L1119.52 180.4C1125.45 182.486 1131.98 179.437 1134.1 173.59L1168.08 79.7288C1170.2 73.8817 1167.1 67.451 1161.17 65.3655L977.048 0.656411C971.114 -1.4291 964.586 1.61955 962.47 7.46746L928.485 101.329C926.369 107.175 929.463 113.605 935.398 115.691Z" fill="#7772D6"/>
<path d="M1057.44 91.5652C1050.67 110.265 1060.57 130.832 1079.55 137.502C1098.53 144.173 1119.4 134.421 1126.17 115.722C1132.94 97.0221 1123.05 76.4554 1104.07 69.785C1085.09 63.1137 1064.21 72.8655 1057.44 91.5652Z" fill="white"/>
<path d="M1086.58 86.5328C1084.58 92.0473 1087.5 98.1119 1093.1 100.079C1098.69 102.046 1104.85 99.1706 1106.84 93.6561C1108.84 88.1416 1105.92 82.077 1100.33 80.11C1094.73 78.1439 1088.57 81.0192 1086.58 86.5328Z" fill="#7772D6"/>
<path d="M1069.04 116.094L1101.43 127.476L1102.72 123.895C1105.09 117.362 1101.63 110.175 1095 107.846L1086.63 104.903C1080 102.573 1072.7 105.98 1070.34 112.513L1069.04 116.094Z" fill="#7772D6"/>
<path d="M1052.9 71.9431C1054.86 71.9431 1056.62 70.7199 1057.28 68.8989C1058.15 66.518 1056.88 63.8894 1054.46 63.0404L973.977 34.7534C973.473 34.5765 972.947 34.4863 972.414 34.4863C970.451 34.4863 968.69 35.7103 968.031 37.5314C967.169 39.9123 968.433 42.54 970.851 43.3899L1051.34 71.6769C1051.84 71.8538 1052.37 71.9431 1052.9 71.9431Z" fill="white"/>
<path d="M1031.17 91.7103C1033.13 91.7103 1034.89 90.4871 1035.55 88.6652C1036.42 86.2843 1035.15 83.6566 1032.73 82.8066L969.872 60.7142C969.368 60.5365 968.842 60.4471 968.31 60.4471C966.347 60.4471 964.586 61.6703 963.927 63.4923C963.509 64.6456 963.572 65.89 964.105 66.9964C964.638 68.1028 965.575 68.9386 966.746 69.3508L1029.61 91.4432C1030.11 91.6209 1030.64 91.7103 1031.17 91.7103Z" fill="white"/>
<path d="M649.321 823.671H1093.9C1107.7 823.671 1118.89 834.697 1118.89 848.299V869.014C1118.89 882.616 1107.7 893.642 1093.9 893.642H649.321L649.553 893.404C668.573 873.9 668.471 843.051 649.321 823.671Z" fill="#9ED16F"/>
<path d="M657.195 834.029H894.858C908.664 834.029 919.855 845.055 919.855 858.657C919.855 872.258 908.664 883.285 894.858 883.285H657.2C665.937 868.034 665.925 849.267 657.195 834.029Z" fill="#D1EAF2"/>
<path d="M285.463 825.686L319.162 742.386C320.858 738.196 318.784 733.444 314.531 731.774L193.265 684.153C189.013 682.483 184.19 684.527 182.495 688.716L148.795 772.016C147.099 776.207 149.174 780.958 153.426 782.629L274.691 830.248C278.945 831.919 283.768 829.876 285.463 825.686Z" fill="#D1EAF2"/>
<path d="M171.067 777.519L201.349 702.666C201.837 701.463 201.242 700.101 200.022 699.621C198.802 699.143 197.418 699.728 196.932 700.93L166.65 775.784C166.163 776.987 166.758 778.35 167.978 778.828C169.197 779.308 170.581 778.722 171.067 777.519Z" fill="#3797DB"/>
<path d="M185.491 767.66L210.354 706.204C210.84 705.002 210.245 703.639 209.025 703.16C207.805 702.681 206.421 703.267 205.935 704.469L181.073 765.926C180.586 767.127 181.181 768.491 182.401 768.969C183.621 769.449 185.004 768.863 185.491 767.66Z" fill="#3797DB"/>
<path d="M189.087 784.595L219.37 709.741C219.855 708.539 219.261 707.175 218.04 706.697C216.82 706.217 215.437 706.804 214.95 708.006L184.668 782.859C184.182 784.061 184.776 785.424 185.997 785.904C187.217 786.384 188.6 785.797 189.087 784.595Z" fill="#3797DB"/>
<path d="M205.001 771.052L228.373 713.28C228.86 712.077 228.265 710.714 227.045 710.235C225.825 709.756 224.441 710.342 223.955 711.544L200.582 769.316C200.096 770.519 200.69 771.882 201.911 772.361C203.131 772.84 204.514 772.254 205.001 771.052Z" fill="#3797DB"/>
<path d="M171.881 694.684L172.49 693.177C172.716 692.622 173.327 692.342 173.856 692.549L185.364 697.069C185.895 697.276 186.142 697.896 185.917 698.45L185.307 699.957C185.082 700.513 184.47 700.793 183.941 700.585L172.433 696.066C171.903 695.858 171.656 695.24 171.881 694.684Z" fill="#3797DB"/>
<path d="M169.275 701.132L169.885 699.625C170.11 699.069 170.721 698.789 171.251 698.996L182.759 703.516C183.289 703.723 183.537 704.342 183.311 704.898L182.702 706.405C182.477 706.959 181.866 707.241 181.336 707.032L169.826 702.513C169.297 702.305 169.051 701.686 169.275 701.132Z" fill="#3797DB"/>
<path d="M166.669 707.579L167.279 706.072C167.502 705.517 168.114 705.236 168.644 705.444L180.154 709.963C180.684 710.17 180.931 710.79 180.706 711.345L180.096 712.852C179.872 713.406 179.26 713.687 178.731 713.48L167.222 708.96C166.693 708.752 166.444 708.134 166.669 707.579Z" fill="#3797DB"/>
<path d="M164.053 714.026L164.662 712.519C164.887 711.964 165.499 711.682 166.028 711.89L177.537 716.41C178.067 716.618 178.313 717.237 178.089 717.791L177.479 719.299C177.254 719.854 176.643 720.135 176.114 719.926L164.605 715.408C164.076 715.2 163.828 714.581 164.053 714.026Z" fill="#3797DB"/>
<path d="M161.451 720.473L162.06 718.966C162.285 718.41 162.897 718.13 163.426 718.338L174.935 722.856C175.465 723.064 175.711 723.684 175.488 724.239L174.878 725.746C174.653 726.3 174.041 726.582 173.512 726.374L162.003 721.854C161.473 721.647 161.226 721.028 161.451 720.473Z" fill="#3797DB"/>
<path d="M158.838 726.92L159.447 725.413C159.673 724.858 160.284 724.577 160.813 724.785L172.321 729.304C172.852 729.512 173.099 730.131 172.874 730.686L172.264 732.193C172.039 732.748 171.428 733.028 170.898 732.82L159.39 728.302C158.86 728.094 158.613 727.475 158.838 726.92Z" fill="#3797DB"/>
<path d="M156.24 733.368L156.85 731.861C157.075 731.305 157.686 731.025 158.216 731.233L169.724 735.751C170.254 735.96 170.501 736.579 170.276 737.134L169.667 738.641C169.442 739.196 168.831 739.477 168.301 739.269L156.792 734.749C156.264 734.541 156.015 733.923 156.24 733.368Z" fill="#3797DB"/>
<path d="M153.626 739.815L154.236 738.307C154.46 737.753 155.072 737.472 155.601 737.68L167.111 742.199C167.641 742.407 167.887 743.025 167.664 743.581L167.053 745.088C166.829 745.643 166.217 745.923 165.688 745.716L154.179 741.197C153.649 740.987 153.401 740.37 153.626 739.815Z" fill="#3797DB"/>
<path d="M151.013 746.261L151.624 744.755C151.848 744.2 152.46 743.919 152.989 744.127L164.498 748.646C165.027 748.854 165.274 749.473 165.05 750.028L164.44 751.534C164.215 752.09 163.604 752.371 163.075 752.163L151.566 747.644C151.036 747.435 150.789 746.817 151.013 746.261Z" fill="#3797DB"/>
<path d="M148.415 752.709L149.025 751.202C149.251 750.647 149.862 750.366 150.391 750.574L161.899 755.093C162.429 755.301 162.677 755.919 162.452 756.475L161.843 757.982C161.618 758.537 161.006 758.818 160.477 758.61L148.968 754.091C148.438 753.883 148.192 753.263 148.415 752.709Z" fill="#3797DB"/>
<path d="M145.798 759.156L146.408 757.648C146.632 757.094 147.243 756.813 147.774 757.021L159.283 761.54C159.813 761.748 160.059 762.367 159.835 762.921L159.226 764.429C159 764.984 158.389 765.265 157.86 765.057L146.351 760.538C145.821 760.329 145.573 759.711 145.798 759.156Z" fill="#3797DB"/>
<path d="M143.194 765.603L143.803 764.096C144.028 763.541 144.64 763.26 145.169 763.468L156.677 767.987C157.207 768.194 157.455 768.814 157.229 769.369L156.62 770.876C156.396 771.431 155.784 771.712 155.254 771.504L143.745 766.985C143.216 766.776 142.968 766.158 143.194 765.603Z" fill="#3797DB"/>
<path d="M111.394 758.967L159.524 826.488C159.631 826.639 159.715 826.805 159.772 826.981L164.678 841.817C165.25 843.544 163.224 844.969 161.751 843.875L148.869 834.31C148.711 834.193 148.573 834.052 148.46 833.893L100.208 766.199C99.5905 765.333 99.8311 764.136 100.736 763.565L108.835 758.469C109.687 757.934 110.814 758.153 111.394 758.967Z" fill="#3797DB"/>
<path d="M148.515 833.967L148.634 834.133L161.063 843.363L164.453 841.13L159.803 827.067C156.16 829.028 151.798 831.044 148.515 833.967Z" fill="#D1EAF2"/>
<path d="M598.976 28.0068C592.048 33.454 579.996 50.9836 564.621 63.2906C555.626 70.489 548.699 68.6573 537.217 70.0256C482.741 76.5129 497.504 87.4835 490.97 88.5608C492.825 92.7672 509.798 128.311 512.969 135.494C515.894 142.121 520.951 145.087 528.279 144.088C539.544 142.554 550.912 141.413 562.001 139.044C590.431 132.969 606.251 118.96 626.626 101.946C632.032 97.4317 633.364 91.8014 630.561 85.4219C617.518 55.7286 600.392 30.7388 598.976 28.0068Z" fill="#3B77BE"/>
<path d="M485.068 131.316C485.313 143.013 484.404 145.36 489.501 143.586C492.571 142.518 495.544 141.127 498.442 139.653C500.486 138.613 500.565 137.241 498.905 135.597C496.486 133.205 494.003 130.874 491.584 128.552C493.355 123.966 491.327 118.626 486.972 116.116C486.083 115.603 486.732 116.69 479.145 99.489C504.232 96.4394 521.933 94.3928 552.54 90.6853C560.722 89.6938 568.001 86.5594 574.33 81.343C596.191 63.3225 618.05 45.3003 639.895 27.2604C642.858 24.8132 643.233 21.2277 640.881 18.4682C639.082 16.3571 636.696 16.2562 634.133 16.5728C627.147 17.4352 558.66 25.8188 551.708 26.6192C542.571 27.6708 534.526 31.0617 527.462 36.8902C505.985 54.609 484.454 72.2633 462.95 89.9503C459.999 92.3772 459.2 94.6042 460.236 97.3035C461.375 100.269 463.862 101.683 467.621 100.884C470.335 100.307 471.534 101.114 472.467 103.588C476.686 114.776 479.628 117.252 478.612 121.336C477.826 124.489 481.63 129.947 485.068 131.316Z" fill="#3797DB"/>
<path d="M371.457 925.84L358.975 937.567C329.454 965.308 305.378 998.175 287.958 1034.52L286.046 1038.51C286.046 1038.51 253.363 1041.36 248.799 1012.24C277.474 980.343 301.079 946.291 320.559 908.41L326.467 894.795L371.457 925.84Z" fill="#3797DB"/>
<path d="M326.488 894.755C324.884 897.022 333.65 905.776 346.069 914.308C358.486 922.841 369.911 928.025 371.515 925.759C373.119 923.492 364.296 914.635 351.878 906.102C339.459 897.57 328.091 892.49 326.488 894.755Z" fill="#3B77BE"/>
<path d="M326.442 894.837L326.481 894.793C326.481 894.793 351.361 915.54 361.617 917.659L358.45 921.906C354.706 919.909 350.452 917.318 346.074 914.309C333.798 905.874 325.092 897.224 326.442 894.837Z" fill="#3B77BE"/>
<path d="M293.197 955.076C293.152 958.653 294.54 974.089 320.609 980.532C318.894 982.834 317.208 985.155 315.553 987.499C299.052 982.692 291.632 974.346 288.297 967.992C287.771 966.987 287.132 965.637 286.709 964.595C288.91 961.447 291.072 958.275 293.197 955.076Z" fill="#9ED16F"/>
<path d="M318.276 975.968L356.641 974.617L347.55 982.219L352.981 991.932L316.669 982.812L318.276 975.968Z" fill="#9ED16F"/>
<path d="M314.779 984.759L328.41 1008.15L318.824 1004.56L315.131 1011.99L308.725 987.382L314.779 984.759Z" fill="#9ED16F"/>
<path d="M309.574 991.101C316.311 991.571 322.171 986.408 322.662 979.569C323.154 972.731 318.09 966.805 311.352 966.335C304.615 965.866 298.755 971.029 298.264 977.868C297.773 984.707 302.836 990.632 309.574 991.101Z" fill="#9ED16F"/>
<path d="M228.135 460.289L308.929 389.258C314.18 384.642 311.993 375.146 304.75 371.105L240.27 335.133C236.141 332.83 231.492 333.044 228.5 335.676L147.705 406.706C142.455 411.322 144.641 420.819 151.884 424.859L216.365 460.83C220.492 463.134 225.142 462.92 228.135 460.289Z" fill="#62BDF3"/>
<path d="M231.968 403.784L238.702 349.211C238.961 347.121 237.415 344.888 235.251 344.223C233.089 343.558 231.125 344.715 230.867 346.805L224.668 397.023L163.403 411.619C161.407 412.094 160.485 414.216 161.348 416.359C162.213 418.5 164.535 419.85 166.536 419.373L231.968 403.784Z" fill="white"/>
<path d="M1595.92 1142.93C1600.24 1142.93 1603.75 1146.93 1603.75 1151.86C1603.75 1156.79 1600.24 1160.79 1594.98 1154.8H3.70654C1.66882 1154.8 0.0151367 1152.16 0.00170898 1148.9C-0.0108643 1145.61 1.65088 1142.93 3.70654 1142.93H1595.92Z" fill="black"/>
<path d="M1287 153.815L1278.65 170.09L1259.78 169.489L1251.73 188.387L1231.83 181.641L1221.77 202.615L1202.68 198.63L1189.65 217.252L1196.8 222.11L1206.54 208.187L1226.7 212.393L1236.37 192.23L1256.6 199.089L1265.48 178.236L1283.9 178.823L1291.64 163.736L1303.66 166.616L1305.71 158.297L1287 153.815Z" fill="#62BDF3"/>
<path d="M276.594 570.189L259.444 577.054L245.621 564.389L226.95 573.428L216.448 555.464L194.876 564.767L183.135 549.401L160.896 555.008L163.049 563.301L179.678 559.11L192.068 575.323L212.804 566.381L223.482 584.645L244.084 574.672L257.584 587.039L273.479 580.675L280.62 590.624L287.715 585.681L276.594 570.189Z" fill="#9ED16F"/>
</svg>
