<svg width="60" height="59" viewBox="0 0 60 59" fill="none" xmlns="http://www.w3.org/2000/svg">
<path d="M10.6684 5.73586C10.6684 2.5709 13.2413 0 16.4087 0C19.5762 0 22.1491 2.5709 22.1491 5.73586C22.1491 8.90083 19.5762 11.4717 16.4087 11.4717C13.2413 11.4717 10.6684 8.90083 10.6684 5.73586ZM9.84832 24.3057L7.53167 26.6206C6.91663 27.2351 6.56811 28.0648 6.56811 28.9354V32.7764C6.56811 34.5893 5.10227 36.054 3.2879 36.054C1.47353 36.054 0.00768807 34.5893 0.00768807 32.7764V28.9354C0.00768807 26.3235 1.043 23.8243 2.88812 21.9806L6.4861 18.3855C8.82326 16.0502 11.9805 14.7391 15.2812 14.7391C19.0637 14.7391 22.6411 16.4599 24.9988 19.4098L26.8439 21.7143C27.4692 22.4928 28.4123 22.9435 29.4066 22.9435H32.8098C34.6242 22.9435 36.09 24.4081 36.09 26.2211C36.09 28.034 34.6242 29.4987 32.8098 29.4987H29.4066C26.4134 29.4987 23.5945 28.1365 21.7186 25.8114L21.3291 25.33V37.1295L24.8655 40.1613C26.6799 41.7182 27.869 43.8691 28.2073 46.2352L29.4988 55.2589C29.7551 57.0514 28.5045 58.7107 26.7107 58.9667C24.9168 59.2228 23.2562 57.9732 22.9999 56.1807L21.7083 47.157C21.5956 46.3683 21.1958 45.6513 20.591 45.129L13.2823 38.8707C11.0989 37.0066 9.84832 34.2718 9.84832 31.4039V24.3057ZM9.85857 41.2777C10.1046 41.5133 10.3506 41.7489 10.6171 41.9742L15.3324 46.0098L15.1069 46.7883C14.6456 48.3963 13.7846 49.861 12.6057 51.0389L5.60455 58.0346C4.32322 59.315 2.24233 59.315 0.960999 58.0346C-0.320333 56.7543 -0.320333 54.6751 0.960999 53.3947L7.9622 46.399C8.35173 46.0098 8.63874 45.5182 8.7925 44.9856L9.85857 41.2777ZM51.7735 38.6147C50.81 39.5775 49.2519 39.5775 48.2985 38.6147C47.3452 37.6518 47.335 36.095 48.2985 35.1424L51.4762 31.9672H41.0103C39.647 31.9672 38.5502 30.8712 38.5502 29.509C38.5502 28.1467 39.647 27.0507 41.0103 27.0507H51.4762L48.2985 23.8755C47.335 22.9127 47.335 21.3558 48.2985 20.4033C49.2621 19.4507 50.8202 19.4405 51.7735 20.4033L59.154 27.778C60.1176 28.7408 60.1176 30.2976 59.154 31.2502L51.7735 38.6249V38.6147Z" fill="white"/>
</svg>
