<svg width="66" height="66" viewBox="0 0 66 66" fill="none" xmlns="http://www.w3.org/2000/svg">
<path d="M32.8196 65.6392C50.9473 65.6392 65.6392 50.9473 65.6392 32.8196C65.6392 14.6919 50.9473 0 32.8196 0C14.6919 0 0 14.6919 0 32.8196C0 50.9473 14.6919 65.6392 32.8196 65.6392ZM28.7172 20.5123C28.7172 18.2431 30.5504 16.4098 32.8196 16.4098C35.0888 16.4098 36.9221 18.2431 36.9221 20.5123C36.9221 22.7814 35.0888 24.6147 32.8196 24.6147C30.5504 24.6147 28.7172 22.7814 28.7172 20.5123ZM27.6916 28.7172H33.8452C35.5503 28.7172 36.9221 30.0889 36.9221 31.794V43.0757H37.9477C39.6528 43.0757 41.0245 44.4475 41.0245 46.1526C41.0245 47.8577 39.6528 49.2294 37.9477 49.2294H27.6916C25.9865 49.2294 24.6147 47.8577 24.6147 46.1526C24.6147 44.4475 25.9865 43.0757 27.6916 43.0757H30.7684V34.8708H27.6916C25.9865 34.8708 24.6147 33.4991 24.6147 31.794C24.6147 30.0889 25.9865 28.7172 27.6916 28.7172Z" fill="white"/>
</svg>
