<svg width="66" height="66" viewBox="0 0 66 66" fill="none" xmlns="http://www.w3.org/2000/svg">
<path d="M13.8188 39.3835H26.5148C27.1482 38.1255 27.8823 36.9494 28.7172 35.8554C29.552 34.7614 30.4877 33.7495 31.5241 32.8196H13.8188V39.3835ZM13.8188 52.5114H24.442C24.2692 51.4174 24.1829 50.3234 24.1829 49.2294C24.1829 48.1354 24.2692 47.0415 24.442 45.9475H13.8188V52.5114ZM6.90939 65.6392C5.00931 65.6392 3.38272 64.9965 2.02963 63.7111C0.676545 62.4256 0 60.8804 0 59.0753V6.56392C0 4.75884 0.676545 3.21359 2.02963 1.92815C3.38272 0.642717 5.00931 0 6.90939 0H34.547L55.2751 19.6918V27.2403C54.1812 26.9121 53.0584 26.6659 51.9068 26.5018C50.7552 26.3377 49.5749 26.2557 48.3658 26.2557V22.9737H31.0923V6.56392H6.90939V59.0753H26.5148C27.1482 60.3334 27.8823 61.5094 28.7172 62.6034C29.552 63.6974 30.4877 64.7093 31.5241 65.6392H6.90939ZM60.5867 37.6195C63.9551 40.8194 65.6392 44.6894 65.6392 49.2294C65.6392 53.7695 63.9551 57.6395 60.5867 60.8394C57.2184 64.0393 53.1447 65.6392 48.3658 65.6392C43.5868 65.6392 39.5131 64.0393 36.1448 60.8394C32.7764 57.6395 31.0923 53.7695 31.0923 49.2294C31.0923 44.6894 32.7764 40.8194 36.1448 37.6195C39.5131 34.4196 43.5868 32.8196 48.3658 32.8196C53.1447 32.8196 57.2184 34.4196 60.5867 37.6195ZM49.9635 58.4599C50.3954 58.0497 50.6113 57.5437 50.6113 56.942C50.6113 56.3403 50.3954 55.8344 49.9635 55.4241C49.5317 55.0139 48.9991 54.8088 48.3658 54.8088C47.7324 54.8088 47.1998 55.0139 46.768 55.4241C46.3361 55.8344 46.1202 56.3403 46.1202 56.942C46.1202 57.5437 46.3361 58.0497 46.768 58.4599C47.1998 58.8702 47.7324 59.0753 48.3658 59.0753C48.9991 59.0753 49.5317 58.8702 49.9635 58.4599ZM46.8111 52.8396H49.9204V52.0191C49.9204 51.4174 50.0931 50.8841 50.4386 50.4191C50.784 49.9542 51.1871 49.5029 51.6477 49.0653C52.4538 48.4089 53.0872 47.7799 53.5478 47.1782C54.0084 46.5765 54.2387 45.7287 54.2387 44.6347C54.2387 43.0484 53.6917 41.7766 52.5978 40.8194C51.5038 39.8622 50.0931 39.3835 48.3658 39.3835C47.0415 39.3835 45.8467 39.7528 44.7815 40.4912C43.7163 41.2296 42.9534 42.2279 42.4928 43.486L45.2565 44.6347C45.4293 43.9783 45.7891 43.4039 46.3361 42.9116C46.8831 42.4194 47.5597 42.1732 48.3658 42.1732C49.2294 42.1732 49.906 42.3783 50.3954 42.7886C50.8848 43.1988 51.1295 43.8142 51.1295 44.6347C51.1295 45.2364 50.9568 45.7423 50.6113 46.1526C50.2658 46.5628 49.8628 46.9868 49.4022 47.4243C49.0567 47.7525 48.6968 48.0807 48.3226 48.4089C47.9483 48.7371 47.6172 49.12 47.3293 49.5576C47.1566 49.8858 47.0271 50.214 46.9407 50.5422C46.8543 50.8704 46.8111 51.2533 46.8111 51.6909V52.8396Z" fill="white"/>
</svg>
